<svg width="63" height="11" viewBox="0 0 63 11" fill="none" xmlns="http://www.w3.org/2000/svg">
<path d="M0.972 10V1.708H5.664L5.496 2.884H2.556V5.36801H5.112V6.544H2.556V10H0.972Z" fill="black"/>
<path d="M8.17791 10.18C7.68991 10.18 7.30591 10.04 7.02591 9.76C6.75391 9.47201 6.61791 9.06801 6.61791 8.54801V1.108L8.15391 0.940005V8.50001C8.15391 8.79601 8.27391 8.94401 8.51391 8.94401C8.63391 8.94401 8.75391 8.92401 8.87391 8.88401L9.19791 9.96401C8.87791 10.108 8.53791 10.18 8.17791 10.18Z" fill="black"/>
<path d="M12.7504 3.472C13.6864 3.472 14.4144 3.772 14.9344 4.372C15.4624 4.964 15.7264 5.78 15.7264 6.82C15.7264 7.484 15.6064 8.07201 15.3664 8.58401C15.1264 9.08801 14.7824 9.48 14.3344 9.76C13.8864 10.04 13.3544 10.18 12.7384 10.18C11.8024 10.18 11.0704 9.88401 10.5424 9.29201C10.0144 8.69201 9.75037 7.86801 9.75037 6.82C9.75037 6.156 9.87038 5.57201 10.1104 5.06801C10.3504 4.564 10.6944 4.172 11.1424 3.89201C11.5984 3.612 12.1344 3.472 12.7504 3.472ZM12.7504 4.636C11.8304 4.636 11.3704 5.364 11.3704 6.82C11.3704 7.57201 11.4824 8.12801 11.7064 8.48801C11.9384 8.84001 12.2824 9.01601 12.7384 9.01601C13.1944 9.01601 13.5344 8.83601 13.7584 8.47601C13.9904 8.11601 14.1064 7.56401 14.1064 6.82C14.1064 6.076 13.9904 5.52801 13.7584 5.17601C13.5344 4.81601 13.1984 4.636 12.7504 4.636Z" fill="black"/>
<path d="M20.2982 3.484C20.5302 3.484 20.7422 3.512 20.9342 3.56801L20.6702 5.05601C20.4782 5.00801 20.2902 4.984 20.1062 4.984C19.7302 4.984 19.4342 5.12 19.2182 5.392C19.0022 5.656 18.8302 6.064 18.7022 6.616V10H17.1662V3.652H18.4982L18.6422 4.90001C18.7942 4.44401 19.0142 4.096 19.3022 3.856C19.5902 3.608 19.9222 3.484 20.2982 3.484Z" fill="black"/>
<path d="M23.4248 3.652V10H21.8888V3.652H23.4248ZM22.6448 0.436005C22.9328 0.436005 23.1648 0.528005 23.3408 0.712005C23.5248 0.888005 23.6168 1.108 23.6168 1.372C23.6168 1.636 23.5248 1.856 23.3408 2.032C23.1648 2.208 22.9328 2.29601 22.6448 2.29601C22.3648 2.29601 22.1328 2.208 21.9488 2.032C21.7728 1.856 21.6848 1.636 21.6848 1.372C21.6848 1.108 21.7728 0.888005 21.9488 0.712005C22.1328 0.528005 22.3648 0.436005 22.6448 0.436005Z" fill="black"/>
<path d="M27.8316 3.472C28.2476 3.472 28.6196 3.532 28.9476 3.652C29.2836 3.77201 29.5996 3.96001 29.8956 4.216L29.2116 5.14001C28.9956 4.98001 28.7876 4.86401 28.5876 4.79201C28.3876 4.72001 28.1676 4.684 27.9276 4.684C26.9756 4.684 26.4996 5.408 26.4996 6.856C26.4996 7.592 26.6236 8.12401 26.8716 8.45201C27.1196 8.77201 27.4716 8.932 27.9276 8.932C28.1516 8.932 28.3556 8.89601 28.5396 8.82401C28.7316 8.75201 28.9556 8.63601 29.2116 8.47601L29.8956 9.44801C29.2956 9.93601 28.6116 10.18 27.8436 10.18C27.2356 10.18 26.7076 10.048 26.2596 9.78401C25.8116 9.51201 25.4676 9.128 25.2276 8.632C24.9876 8.136 24.8676 7.552 24.8676 6.88C24.8676 6.208 24.9876 5.616 25.2276 5.104C25.4676 4.584 25.8116 4.18401 26.2596 3.90401C26.7076 3.616 27.2316 3.472 27.8316 3.472Z" fill="black"/>
<path d="M35.9648 10H34.6328L34.5488 9.11201C34.3168 9.47201 34.0408 9.74001 33.7208 9.91601C33.4088 10.092 33.0368 10.18 32.6048 10.18C32.0368 10.18 31.5968 10.008 31.2848 9.66401C30.9808 9.31201 30.8288 8.82801 30.8288 8.21201V3.652H32.3648V8.02001C32.3648 8.38001 32.4248 8.636 32.5448 8.788C32.6728 8.94 32.8728 9.01601 33.1448 9.01601C33.6328 9.01601 34.0608 8.716 34.4288 8.116V3.652H35.9648V10Z" fill="black"/>
<path d="M39.3146 10.18C38.8266 10.18 38.4426 10.04 38.1626 9.76C37.8906 9.47201 37.7546 9.06801 37.7546 8.54801V1.108L39.2906 0.940005V8.50001C39.2906 8.79601 39.4106 8.94401 39.6506 8.94401C39.7706 8.94401 39.8906 8.92401 40.0106 8.88401L40.3346 9.96401C40.0146 10.108 39.6746 10.18 39.3146 10.18Z" fill="black"/>
<path d="M44.9897 9.70001C44.7657 9.86001 44.5137 9.98001 44.2337 10.06C43.9617 10.14 43.6817 10.18 43.3937 10.18C42.7697 10.172 42.2937 9.99601 41.9657 9.65201C41.6457 9.30001 41.4857 8.78401 41.4857 8.10401V4.75601H40.4897V3.652H41.4857V2.248L43.0217 2.06801V3.652H44.4977L44.3417 4.75601H43.0217V8.06801C43.0217 8.38001 43.0737 8.60401 43.1777 8.74001C43.2897 8.87601 43.4617 8.94401 43.6937 8.94401C43.9257 8.94401 44.1777 8.86801 44.4497 8.71601L44.9897 9.70001Z" fill="black"/>
<path d="M50.9297 10H49.5977L49.5137 9.11201C49.2817 9.47201 49.0057 9.74001 48.6857 9.91601C48.3737 10.092 48.0017 10.18 47.5697 10.18C47.0017 10.18 46.5617 10.008 46.2497 9.66401C45.9457 9.31201 45.7937 8.82801 45.7937 8.21201V3.652H47.3297V8.02001C47.3297 8.38001 47.3897 8.636 47.5097 8.788C47.6377 8.94 47.8377 9.01601 48.1097 9.01601C48.5977 9.01601 49.0257 8.716 49.3937 8.116V3.652H50.9297V10Z" fill="black"/>
<path d="M55.9115 3.484C56.1435 3.484 56.3555 3.512 56.5475 3.56801L56.2835 5.05601C56.0915 5.00801 55.9035 4.984 55.7195 4.984C55.3435 4.984 55.0475 5.12 54.8315 5.392C54.6155 5.656 54.4435 6.064 54.3155 6.616V10H52.7795V3.652H54.1115L54.2555 4.90001C54.4075 4.44401 54.6275 4.096 54.9155 3.856C55.2035 3.608 55.5355 3.484 55.9115 3.484Z" fill="black"/>
<path d="M61.7723 8.32001C61.7723 8.56801 61.8082 8.75201 61.8802 8.87201C61.9602 8.98401 62.0843 9.07201 62.2523 9.13601L61.9282 10.156C61.5682 10.124 61.2722 10.036 61.0402 9.892C60.8162 9.748 60.6442 9.52801 60.5243 9.23201C60.3082 9.55201 60.0363 9.79201 59.7083 9.95201C59.3883 10.104 59.0283 10.18 58.6283 10.18C57.9963 10.18 57.4963 10 57.1283 9.64001C56.7603 9.28001 56.5763 8.80801 56.5763 8.22401C56.5763 7.53601 56.8243 7.01201 57.3203 6.65201C57.8243 6.28401 58.5403 6.10001 59.4683 6.10001H60.2603V5.74001C60.2603 5.33201 60.1643 5.048 59.9723 4.888C59.7883 4.72 59.4883 4.636 59.0723 4.636C58.6083 4.636 58.0483 4.748 57.3923 4.972L57.0322 3.928C57.8242 3.624 58.5923 3.472 59.3363 3.472C60.9603 3.472 61.7723 4.2 61.7723 5.656V8.32001ZM59.0363 9.064C59.5563 9.064 59.9643 8.80401 60.2603 8.28401V7.00001H59.6242C58.6322 7.00001 58.1362 7.36801 58.1362 8.10401C58.1362 8.40801 58.2123 8.64401 58.3643 8.81201C58.5163 8.98001 58.7403 9.064 59.0363 9.064Z" fill="black"/>
</svg>
